<mxfile host="Electron" modified="2024-02-14T10:54:36.432Z" agent="Mozilla/5.0 (Windows NT 10.0; Win64; x64) AppleWebKit/537.36 (KHTML, like Gecko) draw.io/21.2.8 Chrome/112.0.5615.165 Electron/24.2.0 Safari/537.36" etag="pcqzF2ISyFdszI8zROgJ" version="21.2.8" type="device">
  <diagram name="Page-1" id="2XWkQP5S-hDbL94sL5Vg">
    <mxGraphModel dx="2058" dy="1180" grid="1" gridSize="10" guides="1" tooltips="1" connect="1" arrows="1" fold="1" page="1" pageScale="1" pageWidth="3300" pageHeight="4681" background="#999999" math="0" shadow="0">
      <root>
        <mxCell id="0" />
        <mxCell id="1" parent="0" />
        <mxCell id="APLwThIm-aDqV8bCMrbt-1" value="FocusScope" style="rounded=0;whiteSpace=wrap;html=1;fontSize=25;fillColor=#dae8fc;strokeColor=#6c8ebf;" parent="1" vertex="1">
          <mxGeometry x="1380" y="180" width="680" height="60" as="geometry" />
        </mxCell>
        <mxCell id="wzk-zF6iokFzzfaTZNcJ-5" value="Properly moving focus through self contained QML components." style="rounded=0;whiteSpace=wrap;html=1;fontSize=21;" parent="1" vertex="1">
          <mxGeometry x="1380" y="240" width="680" height="330" as="geometry" />
        </mxCell>
        <mxCell id="24cmAzxHSSgxblFjZOgz-1" value="" style="shape=image;verticalLabelPosition=bottom;labelBackgroundColor=default;verticalAlign=top;aspect=fixed;imageAspect=0;image=data:image/png,iVBORw0KGgoAAAANSUhEUgAAAogAAAG2CAYAAAD80Xf6AAAAAXNSR0IArs4c6QAAAARnQU1BAACxjwv8YQUAAAAJcEhZcwAADsMAAA7DAcdvqGQAAB9hSURBVHhe7d0JkGR3fR/wX8/sIWnZ1UpIIM69V5cBcxgwEMMqFgWyiVymXE4MMdjYKQiHCbaLghgDtoEyhMgBAWUSA6ZAhEpMRHASc0nY5gi2gQgZZEteHSAhCUlIWq20x+zu5P9/x8z7j2ZGMz3amenuz2f3N/2u7tfT/9fd3/m/169755x77uTkZExLI9Ojaaj+35g5vlos4R71edXV9xjMZ/kfn6UYrMd2JXiEGCW95pK59P0ILf8VB0pvSb/m6nuM6t+nvl/Tg93xejjLg72zzzl36t1mOinWl9Oj3dCYlWOFeWY9kCVctX9FOl64FbmvK6LP33REHqDR2Q6AhZh+i11Gfa90Re7tsluZh6e/Kx+/VU7PrIaaMNgNjVkxrwqIc/YaVrM6Zo7P5gEXmFufV13CGpdgVH7PUTFAj+6AbQi22+Nj+iV9yK3ILzoyj+6y6/uRXVKTLH97rsbfs5o7o5cwT20u2h9Ty/XOPvucTubrBMA0sGbt2tiw4aRYt3ZdrFu/LsbHx4/rq303pjKLgXp4lv/O2nqAlVa/xS63lVlrXwborq6EJq4dH+mmjx49GocOHYrDhyfivvvuiyMTE2l6vc42MLY/e2elgFiN5XjWvsOmgY0bN8bJm0+OO+7aHwcOHo6D6cYmJo42C8BqV2/kDArtNfy0McOg3Y4X0yWxerb9tWvG44T1a+LE9WvjtFM3xF133R337NuX7mJ9H4uQWAfE6XCYj0M87bTT0pSxuPn2u1LKPFLPgIGwep6ILIZ2Gyy5veZ6g9SWDLOZ2/dCguLqfE6sWzsejzj95Fgzfix++MPbmqnp3lZ3t5dS4FQ4zJeTsWnjxioc3vCD24VDBkDekrvFYNBug6ttr9naTVsyiBay3eZl5trmZ6uuhYTI5Xd44mjKej+KI0fHqr3G9QeVpzPh2HQ4zF2Pa6rdyrnnEFa32Z6ErH7abbBpO4ZNu03P99rUz3bfvb1+rr98br7t7th88slVBuxmwrFqsJoQseEhG6pjDvUcsrqt7icbc9Fuw6fbptqXYZC345m1FEu9/vGXexJvv/PeOGnDSdV4mwnHps59mC7zp5XzB1Jg9Vr9TzZmo90Gy2LaKy+rfRlUTQYacQcOTVQZsE2HORtWPYh5Qp6UT2WTP60Mq5M3ocGk3QZL217ajWGQt+O5qiUkHjx0JNavX18/Ek1I7O0+88ymE3Eytm7ZGt/5pxurGXPZtHFDrF1T58rFmDhyNPbdc18zBovVfTIzOLTbYJnZXjPfOLUng2Qh22vexm3X2bk7z4jrb7g+DfWqTzL3du0+swmMKSBu3RLf/aeb8uicLnrX22PHzp3N2Ox6zfl0brrl9jaIxr377ojX/fYbYmxsvJ4Ac/JkHSwz26sNFdpx8MzWZtqTQWWbXYxzdj48rr/+hu5pbupwuFCbT94U5561a94658ydVZ3/7KfHc59T1+mnPXRR62HYLPSJ6gk9WGZrrzxNO65us7XRXG2mPVmKldh2ym3299/8+vjeNd+Mm669YtbK8/Iyq81XL/t0PONpT2nG7i/P+8oXP92MPVja09ykRzD3ILbBbSE9iB/9k/fHox+9Iy7962uiNzZZ13iuY3HBE3bGGQ8/Ofbvv7dadsOGDfFnX7muGt628b548Ut/PcbH11TjM/39N74Sp5yyuRmL+PBHL4nfecvbmrHjq7vu5VzvbG669jvNUO26lOafdd4FzdigmvkCMdcfCt6EVoduO8z3R532GkzajeWy0NeSB9P9t+8cAM+/4Bfi5lt/mMba+zG93KmnnBJ/9YVL47G7ntRMWR1yALz4j94er3rtG+OrX/+7Zmptvnn9qnsQ213MTQ/iYuSHtNcbj+vu3h/X33NP3HDfvvj+obvjxom7YmLiWEqeqZp/rfF1C/uKvp//xV+OR20/t6rlCmlfvux/x0Xv/cDUeh/1yEc0c1bO1H1Jdeedd90vNA6W2d6MFjqN5TezHbTLcNGeLKflCoWt2bfv8fHxKhzu23dPqv1N5eG6rr/he9Uyq00OfjkA5iDY7Uk8HuFwNosOiEeP1Q1++kPXR2/dkbj7yL647eAdceuB+mtaejO2hxNOORgnnbZ6P5ySTw75Jx/5WDMW8Sv/5lXN0Orwghf+UnzzW1fEhz94cTNlNcpPysW+8bTX6ee6LC/tBPQrh4LlDorDY2ZIXK5wmC06ILbNfNWtN8Z1d90cdx25Mw7EPXG4t7+aPtm8h/SaN5MNm/fHSQ+p5/XjD97y76setLZe9tIX1zOSPNydl+Uewe4y3fEcstplP/Nnl1TT8i7cvIt5Nt11d5dpp3VvJ8vrmus6WR5v5+XlFuqKK78Tpz301GasXH/7u+Xby/cl34c8PQ93H5/u+rr3MVf38VqamQFCoBg+2nQw5HbyfGTYtNv1XDWcuiFxucJhlgJiE/nycYgLCPltExxIgXDtiROx9oSJWLP+cKxNVUm30YbD7KzTHxM7N29vxub3qU9+dCq0PO0nnlwFl1/55V+a2t2ad0H/3u++YWpeHu7ujp1Pvs5PPPmJU8vmnrksX176melQ1coh6udecMHU8j/25GdW03PIy8cpttPzsYvd3r3ude66++6peTN3ZeflFiqH2PYYybz+7q74f/fqV1TTsyc98QlT9y0Pt4/d7/7eO6bWN99j2p+ZT8rhfZIOj9xGbXVpu+HQbce52hr6c9O1315QMYByBqxyYM6D7Ymy+1AFw1Rr1+fqBMT0OtTNmTtP2VHVQnSDz9f/9hvxrGc8PT73hcubuVFNy7tbX/Azz7vfvAeSr5vloDZTPt4xrzNr5z/hcedWwbGrDVHd4yNzINu1czoA5xDY6s7btnVLFcTaAJwD30J77vJ187GIef35et0gncfb+5Ufm3Z3eQ6Vef1ZntYGzPke0wePN6TVa2a79NNO2nf10i482Mpt6lHbH7+g6s98ry2ju213dyt3dzcfb30HxDoc1sFwXb5cVwfE+hPRbUScjMMTE3HgwMFm/MGRw08/ci9gDk0zewtbuTcxH5O42N60HN7m0p3Xht+2usc+zuc5P/XMajdzlm9v5u204Xcp5n9M53vSMvi073DQhhwP3S6f46m7/bavSe200d22Zx5zOPOYxONp8QExtdOhQwfiaaftiKecsiuetGl3/PiGs+PxJ55bTa8XqRszZ8Vjx47F0VT9+PJX/28896f3NGN1D17edZqD1cx5rRygci9ZlpfPvW9d+bq5p7Kd3g2KbQ9dDlw5kM3cDdwGse7xfHl3bRvesu518u7fdl7Vo9fHB03aHs3caznb+hdrvsf0gc18ko7ukxZWVn7uef6xXBazrbXb5mKvM5fF3M7sjh49Wp3KZi5nnPGwapnVZq4PpCxXSOzt2r276fTL36SyNb67d/7zIH7og++Lf/6cZ8Z99+6farZe9e0o+eSKx2LNmnUxNjYWR9KDnR/wHBCzv/vWlQ94HsSXvfw19+sNy2Eoh7BWDnfdoNSdl3vTcuDJu2CzHBar4wA/ekn8/Xeumpqe5ePycijKoa0bmLq3352Xb6s9DjH3QLby7tr2k885zOXlcuDKql23zbGOWfd63dvr6i6TdW8/6/5+WQ6e+TyJ+bHIu8Xb9eX7kn/vNvjl282PTzbfY3p/sz05278ol/7E5Xjotkv3r3/tNRy0I8ut3eYeqDfxgbbNua5/fLfpfBLsl7z4F+c8lU3OKn/6sU/Gm976h82UlZfPQ/jlL1wav/3G35/zAyk5HP6Hd7wpnnHehc2UpTlnR3MexNQcuaNv0QHxta9+RTzxx+c+viCHw1z5AW9PwJ19+4or410XvSfG5giIw2BmKBsO3owGy2zt1T4PteXg04aslJnb3mxhz/b5YMohsZujjrclB8S88OSxFP6a8YXKm03uaWy/p3kYDW5A7LZJt2U92Vev3DZeoEeLtmUlzbX9ta9Dts9BNzMgLvoYxOrrV8bXVLuKF1P5OsMcDodHbqO2WJ3atum2VVsMB+3JoLCtDqu+P8XM/eVjAQe79xBYed3nZPvm63kKLK+xdvfyYncZAytBUBh88wU+7ctKaLfJbjGKqiyYfuRLPYgAK2Lmm7A3ZVaTbli0bY4iAXGkedLDyvIcBFYnAREGhjAx+GZrwzxN23K8tNvXXNuZbY/ZCYgjY+aLhBeF1Wu2dtJeq9fM9moLVtps26HtlIUREEeCF4HBMVtbab/Va762mTlPOwKDQ0Acet6UBoe2GiwLaS9tymLlbWYx2027/GwF/evt3LU7f4ly9ZHmbVu3xuc//7l6DgAAI+H8858b111/ff2nRf5SlGoqAAA0BEQAAAopILbfopJ/1kMAAIyOKg1OfbPepB5EAABKAiIAAAUBEQCAgoAIAEBBQAQAoCAgAgBQEBABACgIiAAAFMbac2NP5vMj1oMAAIyYNgfmTKgHEQCAgoAIAEBBQAQAoCAgAgBQEBABACgIiAAAFAREAAAKAiIAAAUBEQCAwlh11ux8yux8/uz2FNoAAIyOOhA2mVAPIgAAMwiIAAAUBEQAAAoCIgAABQERAICCgAgAQEFABACgICACAFAQEAEAKFQBsT15NgAAIyp/kUozqAcRAICCgAgAQEFABACgICACAFAQEAEAKAiIAAAUBEQAAAoCIgAAhRQQ8ykRnSUbAGCU1Wkwny17Ug8iAAAlAREAgIKACABAQUAEAKAgIAIAUBAQAQAoCIgAABQERAAACgIiAACFscnmi1Qmm38AAIyWOgNWgbAa0oMIAEBBQAQAoCAgAgBQEBABACgIiAAAFAREAAAKAiIAAAUBEQCAQhUQq9NjVz8AABhF+ctT2jioBxEAgIKACABAQUAEAKAgIAIAUBAQAQAoCIgAABQERAAACgIiAAAFAREAgEIKiPmc2ZO+TQUAYFRNZcA0MDmpBxEAgJKACABAQUAEAKAgIAIAUBAQAQAoCIgAABQERAAACgIiAACFMSfHBgCgSw8iAAAFAREAgIKACABAQUAEAKAgIAIAUBAQAQAoCIgAABQERAAACgIiAACFseqLVPKPyepHHgMAYKSkDJizYP1fDyIAACUBEQCAgoAIAEBBQAQAoCAgAgBQEBABACgIiAAAFAREAAAKKSBOOj02AABTmVAPIgAABQERAICCgAgAQEFABACgICACAFAQEAEAKAiIAAAUBEQAAAoCIgAAhbH6lNn521R8owoAwCjKGbDOgfWQHkQAAAoCIgAABQERAICCgAgAQEFABACgICACAFAQEAEAKAiIAAAUBEQAAApjzRep1NpLAABGRxsI8/9UehABACgIiAAAFAREAAAKAiIAAAUBEQCAgoAIAEBBQAQAoCAgAgBQqAJie25EAABGVxsH9SACAFAQEAEAKAiIAAAUBEQAAAoCIgAABQERAICCgAgAQEFABACgICACAFCYCoj1mbN9nQoAwCia7MRAPYgAABQERAAACgIiA6qnlFIDUjB4BEQAAAoCIgAABQERAICCgAgAQEFABACgMFafFdEJsgEARlebBdNlyoZ6EAEAKAiIAAAUBEQAAAoCIgAABQERAICCgAgAQEFABACgICACAFAQEAEAKNQBsTp5tm9TAQAYRXUKzN+iUg3oQQQAoCQgAgBQEBABACgIiMBom4w4dNhR2ABdAiIw2O6O+MRFEe98Z8S73h3xwU9EfPOmiGPN7Pkc/H8Rz9sW8aizIy69s5m4GDdG/PTWdN27mnGAISEgAoNtPOKL74n4y+sjvrc34vI/jXjBmRHnvjTiuiPNMnO47OKIiddF3HpNxIWbm4mL1O15/NRrIn7rz5sRgAEmIAKD71jEP0vh7L3vj/jEX6SgeG3Es78W8dL3TfckHrknBcbrIvZNNBOSW38QsXFjxIE0bayXJqS0ty9N23tjmna0XiZSyLz3QKdHcuZ4YzItf+MVETenefeksssaGGQCIjAUejngNcYfFvGm10dc9ckU9lJS+9a7I7Zvj7jg+fXlxd+N+NDPRbzuSxGffW3E2b8Q8f39Eb/5pIjH7Yn4+edE7PipiK/dGzHxrYinPDXi201gPHJlxFOfGPGNbu9kWsd70m2/LS37mVdHnPOzEVdLiMAAG5t6DUsDXs+AYfHQ3REPuTXipr+J+NWLIy5Kwe6qf4j4qxQIL3prxL+4NOI/pjD4/A9EfO9/RjzmWMSFH4q47h8jrkgB8tdSYPzwV5sbe6AXxxROf+NzEb+TguOFf5zC5hcjzuwEVoCB0LzW5Qs9iMBQOrwv1YkR96SQ96PNEZe8MuKFL0wh7rKIA9dE3JICYc5w4+P1ZWyK2H53xBtfGvHsn4z40PUR996bZyzOmjXNAMAAExCBofTX/yNi83MjHpv+FB7bEvHrKSC+/OURr3htxMfeE/HIZrnW7Z9OwfAVEY95UcRHPhvxhqc0M7J0G8fav6xTsJx5/CHAsBEQgaFw5EgKbim5Hbwj4r//ZsSvXh7xttdH7HxyxPjfRuw/N+L881Odl8LhwyNOnfHqd9OVEev2RLwkLbPlUMRlaTxbc2rEKbdHfOvmevyqFB6/14TFmXLv4X0HmhGAASYgAgOvdzTiD54WcfLGFOa2RbzztohPfS3iwhQENzw74r0vjPi1XRFnPj5i6yMifusvmyt2nPWCFBovScucHbHreenFcXc9vbc94rUpNL7uiRHn/ljEK1Nw3DbH8YXPTMt9/uURZ18Q8Y9zhEiAQdDbsnXbZEzm/5Oxfcf2uPyyy5pZsJr5BADTDt2bKoXE3njEiSdGrJnlT9/Dd0Z8/0cpRKaAeNpJ9bSjh9L0tOyJa+vxYwcjfnBrxMa0zIZ0exNrpufl09/ckca3nFqfFievZywtc1+6zrp0e2uaTfK+H0b8aF3Eo/s8ryLDyF8LrH57zjsvrt17bfTyKSFS6UEEBt76DRGbNqVgly5nC4fZulMiduyYDofZ+PrpAJiNnZCC3ZYUIlPAW5MCYHfepkdGbHtYWiaFxA05HOaJKZCelNfZ+XvlpLSMcAgMOgERAICCgAgAQEFABACgUAVEh88CAFBnwkk9iAAAlAREAAAKAiIAAAUBEQCAgoAIAEBBQAQAoCAgAgBQEBABACikgJhPiTjpZNkAACOsmwX1IAIAUBAQAQAoCIgAABQERAAACgIiAAAFAZEBVX/6XimlVn/B4BEQAQAoCIgAABQERAAACp2AOOlQCQCAkTV93KweRAAACgIiAAAFAREAgIKACABAQUAEAKAgIAIAUBAQAQAoCIgAABQERAAACmO+PQUAYMS1ebD5MhU9iAAAFAREAAAKAiIAAAUBEQCAgoAIAECht2XL1snJSP/Szx3bd8Tll1/WzILVq/fWXjMEsLpNvtnpQlj99uw5L/Zeuzd6+V+vpwcRAICSgAgAQGGs6vhuTooIAMCIarJgvtCDCABAQUAEAKAgIAIAUBAQAQAoCIgAABQERAAACgIiAAAFAREAgIKACABAoQqIvkQFAIA2E+pBBACgICACAFAQEAEAKAiIAAAUBEQAAAoCIgAABQERGG35nA5H60EAagIiMNgOpvpaqq+k+mqqK1PtS7UQt6T6T6kuTnUgT1ikvJ4/SpXvA8AQSQHRabKBAZb/zP16qrtS3ZnqilQ58F2a6liq+fxNqp9M9ZpUJ+QJS/R/Ul1dDwIMlm4enNSDCAyB/Lr2tFQ/k+rFqX4j1fdT5QDYOpQqB8ju7uR7Uq1Llaf1UuXbydNyz2AbLvPlRD1YmTneytNzj2SeN9t8gAEiIALDZ0OqZ6X6Tqoc+vKu57wr+ePN5W2p/muq61P9Rar/lupwqj9O9ZGmPtxMuznVf07VBsZbU+Xl2vFWvu0cEHMv4iWp7JwBBpiACAynh6ban+qmVLkn8d+melWqp6f6Uqp/mWprqp9N9a9S5UB3YapXp3plqhwOcy/kQv3rVGekyrf3klS5RxJgQAmIwHDKu5TXpsohLx9f+L9SfTLVdal+lKrt4WuD3PpU+Tr52MX/kiof09jPrmKvqsAQ8FIGDKerUu2oB2Nzqqemekqq3IP4/FQz/UOqP0/1uFS5N/CRqVrd3cV2HQMjQEAEhkM+JjCHt/tSfTZVPr7wmakekSrvZj49VQ6M21LlYxRn7gL+Yao8Ly9zpBnPTkyVbzN/eCXbm2qukJhfUfN1AQacgAgMvhzY8m7ht6fKH0LJge5lqR6SKh9neE6q96b6QKp3p7oh1Uy7U+VzKOZT5HwsVT6GMTslVQ6N+YMp70+VP6Qy1/GFebncC5k/sKKnERhgvcdu2TI5mV/I0o8dO3bE5ZdfVs+BVaz3Vp8AoCN/oCS/juXNIh93ONvmkU+EnWtjqrxMlnv78rLj1Vg9nj/YkpfJPZL5T+h2Xu5BzOO5RzGfFiffRl4mX6e7zntT5es8GOdVZChMvtlfC6x+e/bsib17r02vZb38Xw8iMATyuQzzh0zy5WzhMMvB7tRUbTjM1qRqA2CWx/PxinlaXq47L4fGvGs6v2q2t5GHZ64zLyMcAgNuRkD0Vw4AwOiqs6AeRAAACgIiAAAFAREAgIKACABAQUAEAKAgIAIAUBAQAQAoCIgAABTG6vMhTlYXTpMNADB66hw4nQT1IAIAUBAQAQAoCIgAABQERAAACgIiAAAFAREAgIKACABAQUAEAKDQe+xjt0zmEyOmH7Fjx/b40uWXN7MAABgFz9mzJ/bu3Ru9Xq+qTg+i71EBABhp9Veq2MUMAEBJQAQAoCAgAgBQEBABACgIiAAAFAREAAAKAiIAAAUBEQCAgoAIAEChDojVl6j0qkEAAEZUEwf1IAIAUBAQAQAoCIgAABQERAAACgIiAAAFAREAgIKACABAQUAEAKDQCYjV2bIBABhxehABACgIiAAAFAREAAAKAiIAAAUBEQCAgoAIAEBBQAQAoCAgAgBQEBABACgIiAAA1F+q13yxnoAIAEBBQAQAoCAgAgBQEBABACgIiAAAFAREAAAKAiIAAAUBEQCAwlhzPsSpEyMCADC6ciTUgwgAQEFABACgICACAFAQEAEAKAiIAAAUBEQAAAoCIgAABQERAICCgAgAQEFABACgICACAFAQEAEAKAiIAAAUBEQAAAoCIgAABQERAICCgAgAQEFABACgICACAFAQEAEAKAiIAAAUBEQAAAoCIgAABQERAICCgAgAQEFABACgICACAFAQEAEAKAiIAABE9JrLREAEAKAgIAIAUBAQAQAoCIgAABQERAAACgIiAAAFAREAgIKACABAIQXEyWYQAICR1YmEehABACgIiAAAFAREAAAKAiIAAAUBEQCAgoAIAEBBQAQAoCAgAgBQEBABACikgNirh5oLAABGmx5EAAAKAiIAAAUBEQCAgoAIAEBBQAQAoCAgAgBQEBABACgIiAAAFAREAAAKAiIAAMW36gmIAAAUBEQAAAoCIgAABQERAICCgAgAQEFABACgICACAFAQEAEAKAiIAABMyefLFhABACgIiAAAFAREAAAKAiIAAAUBEQCAgoAIAEBBQAQAoCAgAgBQEBABACgIiAAAFAREAAAKAiIAAAUBEQCAgoAIAEBBQAQAoCAgAgBQEBABACgIiAAAFMZ6+Wf1AwAA9CACADCDgAgAQEFABACgICACAFDoBMSez6oAAIyyHAZTjUmFAACjrc6F06FwLCbrgTzpyNGjcdttt9UTAAAYejn7HTlytBmrNT2IdWI8dPBQXH3NNdUwAADDL2e/g4cONmN1JqyOQWw7FA8dPhTXXH11MwYAwLDL2e/wocPVcJ0JezkgNvEwXey/Z398/OOXxI033lhPAwBgaOXMl7Pf/v37p3sMk/pTzM2EiYmJuOWWW+Li972vngAAwNDKmS9nv5wBKykT5lg4vvmUzW/pRsa8D/qO2++IvXv3xllnnRWbNm1q5gAAMAxyz+Hb3/6OuOzyy+KOO+6opvV6OR328v/obdm6dXIyf5I5/aj+NZ9qPvnkTXHGGWfEi1/0oti1a1fs3r07Tj/99HomAAADJX9a+eqrr45rrrkmPvbxj1c9h/vu3lfPrHoO24CYasvWbSkgVgmxDoedoLh27ZrY+JCNsW79ujhh/QkxPt6cFacJkbObd+a8+r5m/6tcguVf6WD9mityb5fdiGx6yWi058qY3oMz1Fbg1xyRRzbp8zcdmTZZ/rXmHrjlN89K06w8N5/K5tChg3Ho8OHqmMOJiSN1b2G1QNNz2A5vzQExvfhXITH/bwJi/b8zvf4xdTmXan6/+rzqSqxzKfq+v33f1/5/yRV4eAarTQbNiPyaPID8TsGcqjfI5baEVfZ/1cH5PVeiTardrcttCauc9zFKs6aC39RwfVnvVm6nTc/vBMR8C/kyDVT/y+H7Xc6hus5yW8Iq5/td5rUiv+YI3NelWIFVLsWKPEawQqo3n1HQ56+5tEdnRVbalxXZDvp+eJZwX1fZOqvbrf53L9PP7rQ83k7P19m6bVv1PlX0HFbDSXda/ldPrP7Ppblmf/q86qiss19Luq/9WoFVLmWlA3Z3OU5W4rlSvxQzpxV4eJa2yj6vPUCbwYpss0tYZd/3d5jWWc1KS6TLarmpy+60ergay8Nbt21Pr4n5ZbG6SK+Q9XD9f/pyZm/iXKr5y20Jq+z7/q7IrzkC93UpVmCVS1npitzdUTFID271gjz8VubXXIG1rsgql3mlS1jdst/XrM9VLum+rsQ655MDX3WRflb/849mbc14Oa8X/x8R05PFx9T6wQAAAABJRU5ErkJggg==;" vertex="1" parent="1">
          <mxGeometry x="1396" y="620" width="648" height="438" as="geometry" />
        </mxCell>
      </root>
    </mxGraphModel>
  </diagram>
</mxfile>
